# xmcd
#
# Track frame offsets:
#	150
#	19675
#	39725
#	65225
#	93792
#	115067
#	141947
#	164277
#	185880
#	213697
#
# Disc length: 3205 seconds
#
# Revision: 0
# Processed by: cddbd v1.5.2PL0 Copyright (c) Steve Scherf et al.
# Submitted via: EasyCDDAExtractor 16.0.9.1
#
DISCID=940c830a
DTITLE=Various Artist - Xuân and Tuổi Trẻ
DYEAR=1992
DGENRE=Pop
TTITLE0=Elvis Phương - Anh Cho Em Mùa Xuân
TTITLE1=Vi Lan - Những Kiếp Hoa Xuân
TTITLE2=Vũ Khanh - Mùa Xuân Của Mẹ
TTITLE3=Hằng Nga - Đón Xuân
TTITLE4=Huyền Châu - Xuân and Tuổi Trẻ
TTITLE5=Vũ Khanh - Tôi Chưa Có Mùa Xuân
TTITLE6=Phương Loan - Xuân Ca
TTITLE7=Elvis Phương - Rừng Chưa Thay Lá
TTITLE8=Lệ Hằng - Mùa Xuân Đầu Tiên
TTITLE9=Carol Kim - Đôi Ngã Chia Ly
EXTD=
EXTT0=
EXTT1=
EXTT2=
EXTT3=
EXTT4=
EXTT5=
EXTT6=
EXTT7=
EXTT8=
EXTT9=
PLAYORDER=
